Coordinates
version=1
nRows=24
nColumns=22
inDegrees=yes

Units are S.I. units (second, meters, Newtons, ...)
If the header above contains a line with 'inDegrees', this indicates whether rotational values are in degrees (yes) or radians (no).

endheader
time	pelvis_tilt	pelvis_list	pelvis_rotation	pelvis_tx	pelvis_ty	pelvis_tz	hip_flexion_r	hip_adduction_r	hip_rotation_r	knee_angle_r	ankle_angle_r	subtalar_angle_r	hip_flexion_l	hip_adduction_l	hip_rotation_l	knee_angle_l	ankle_angle_l	subtalar_angle_l	lumbar_extension	lumbar_bending	lumbar_rotation
      4.77000000	     -7.07036662	     -0.06657567	    -34.09238687	      0.47081668	      0.87840278	      0.63519586	      8.53712074	      7.94510304	     -0.50496009	     -7.35066566	     10.92628897	     -4.31832084	     16.74394496	    -10.00512795	     -2.37643941	    -63.61361114	      8.13675924	      9.74449355	     -0.52591417	      6.91656933	     10.03205130
      4.78000000	     -6.94513361	     -0.07961683	    -34.51011597	      0.47410480	      0.87866228	      0.63913178	      8.02068630	      8.02120443	     -0.11275283	     -7.30315649	     11.15536512	     -4.42046330	     17.49108041	    -10.28069584	     -2.86461374	    -63.21790062	      9.04576968	      8.75179656	     -0.54111955	      6.83493531	     10.37554809
      4.79000000	     -6.82590459	     -0.09947478	    -34.91698578	      0.47736451	      0.87886659	      0.64300150	      7.50347227	      8.09745490	      0.28596078	     -7.24676533	     11.38468610	     -4.53235296	     18.21466645	    -10.57730694	     -3.33908501	    -62.66694548	      9.86517161	      7.72071458	     -0.56392760	      6.76465888	     10.70256546
      4.80000000	     -6.70957481	     -0.12321156	    -35.30517346	      0.48064280	      0.87903131	      0.64678347	      6.98801378	      8.16494624	      0.67271962	     -7.19161621	     11.61121162	     -4.65934331	     18.90605196	    -10.87527710	     -3.78786163	    -61.95083233	     10.59715840	      6.64348591	     -0.59093174	      6.70461661	     11.00169316
      4.81000000	     -6.59698755	     -0.14692841	    -35.68592132	      0.48389143	      0.87914639	      0.65048004	      6.47386841	      8.22404310	      1.06426032	     -7.12521060	     11.84560987	     -4.78992991	     19.57540872	    -11.16560345	     -4.20257299	    -61.08675005	     11.23794251	      5.60427537	     -0.62690862	      6.64819720	     11.30125083
      4.82000000	     -6.48273864	     -0.16856046	    -36.05001077	      0.48714462	      0.87922308	      0.65407164	      5.96919463	      8.26586358	      1.44894226	     -7.07316423	     12.07859777	     -4.92477018	     20.21694534	    -11.43772564	     -4.58808588	    -60.07370746	     11.81049745	      4.61633407	     -0.67169780	      6.59474023	     11.56381382
      4.83000000	     -6.37182415	     -0.18521325	    -36.41024425	      0.49037367	      0.87925760	      0.65756890	      5.47468929	      8.29398582	      1.82664648	     -7.01933343	     12.32652154	     -5.05453133	     20.83521706	    -11.68007745	     -4.92513203	    -58.91750873	     12.30556361	      3.73298027	     -0.72410683	      6.53948668	     11.82487178
      4.84000000	     -6.25868529	     -0.19831137	    -36.75406593	      0.49360962	      0.87925703	      0.66095333	      4.99860520	      8.30442269	      2.18141334	     -6.99310450	     12.57031719	     -5.18645680	     21.42422859	    -11.88631200	     -5.21569206	    -57.62139526	     12.76295048	      2.91455860	     -0.78479405	      6.48403487	     12.04804785
      4.85000000	     -6.14829003	     -0.20468935	    -37.09267503	      0.49684448	      0.87921524	      0.66423103	      4.53294213	      8.29887963	      2.54142982	     -6.96660747	     12.84801773	     -5.30274821	     21.99059784	    -12.04783266	     -5.44723637	    -56.19557918	     13.14914019	      2.24000539	     -0.84920350	      6.42700156	     12.27820485
      4.86000000	     -6.04331729	     -0.20705742	    -37.41757716	      0.50009382	      0.87912647	      0.66739783	      4.09036321	      8.28160167	      2.86553307	     -6.96124709	     13.12870004	     -5.41586633	     22.53752900	    -12.16787511	     -5.61917272	    -54.64998226	     13.50091259	      1.64268404	     -0.91391257	      6.37202631	     12.48472717
      4.87000000	     -5.95818928	     -0.19793734	    -37.74201272	      0.50332093	      0.87896530	      0.67044518	      3.70489578	      8.25803178	      3.18375076	     -7.00648938	     13.41402827	     -5.49679194	     23.08570563	    -12.24618536	     -5.71809991	    -53.00009426	     13.80631574	      1.24790691	     -0.96500090	      6.32166192	     12.71690489
      4.88000000	     -5.86893474	     -0.21403009	    -38.00684111	      0.50664851	      0.87878096	      0.67333270	      3.28438020	      8.23752598	      3.43518303	     -7.01531388	     13.71663152	     -5.62702458	     23.61058883	    -12.27368732	     -5.69033390	    -51.26430869	     14.07349940	      0.70922787	     -1.03731767	      6.29664313	     12.85487417
      4.89000000	     -5.81187363	     -0.20279314	    -38.28163297	      0.50993115	      0.87848885	      0.67612801	      2.95155356	      8.20968740	      3.68933577	     -7.09387939	     14.04393667	     -5.70175118	     24.16089098	    -12.26384402	     -5.59312097	    -49.44913458	     14.26591764	      0.47354788	     -1.07444962	      6.26679204	     13.02084947
      4.90000000	     -5.75893107	     -0.20904734	    -38.52559564	      0.51327015	      0.87816258	      0.67881264	      2.61163968	      8.18977675	      3.90851275	     -7.16900863	     14.37468824	     -5.80143755	     24.69303333	    -12.21894227	     -5.38505521	    -47.56687030	     14.40227418	      0.23193231	     -1.12467895	      6.25640632	     13.15181679
      4.91000000	     -5.72446638	     -0.21940235	    -38.75549287	      0.51661946	      0.87777603	      0.68142825	      2.29558587	      8.18041444	      4.11306519	     -7.25998635	     14.70886320	     -5.90348288	     25.22509865	    -12.15296057	     -5.08124628	    -45.62868375	     14.46313450	      0.07027774	     -1.16700541	      6.25898386	     13.26798353
      4.92000000	     -5.72005602	     -0.22834115	    -38.97059858	      0.52000466	      0.87730939	      0.68398982	      2.00081102	      8.18276279	      4.33572367	     -7.34130930	     15.04453165	     -5.97753144	     25.77185812	    -12.07536538	     -4.68549088	    -43.65116368	     14.46379688	      0.00960308	     -1.18408315	      6.28210253	     13.34958895
      4.93000000	     -5.64127305	     -0.23707028	    -39.21607697	      0.52338240	      0.87694570	      0.68659159	      1.67650518	      8.13657733	      4.53310501	     -7.49094771	     15.40080803	     -6.14431933	     26.19271432	    -11.94582783	     -4.27486976	    -41.58612080	     14.29796183	     -0.02989984	     -1.27676412	      6.23676034	     13.49609947
      4.94000000	     -5.58454552	     -0.23848906	    -39.45254955	      0.52680960	      0.87652248	      0.68919034	      1.35825143	      8.09287765	      4.75019862	     -7.61083519	     15.75154560	     -6.29172381	     26.61702850	    -11.81165392	     -3.79100521	    -39.49754525	     14.05489747	      0.03287087	     -1.34131444	      6.19703431	     13.62638123
      4.95000000	     -5.51619883	     -0.22828312	    -39.69238390	      0.53028457	      0.87609399	      0.69180130	      1.04037567	      8.02606412	      4.96079803	     -7.74022934	     16.10798417	     -6.43256170	     27.00430419	    -11.65963981	     -3.26767759	    -37.37923873	     13.70745852	      0.16985828	     -1.40731538	      6.13285160	     13.76493840
      4.96000000	     -5.45167432	     -0.21170866	    -39.93215904	      0.53379099	      0.87563983	      0.69442733	      0.72532778	      7.95224496	      5.16803944	     -7.86183717	     16.46525414	     -6.56241763	     27.37556028	    -11.50823988	     -2.69813177	    -35.25648573	     13.27667570	      0.35144681	     -1.46429104	      6.05734154	     13.91369133
      4.97000000	     -5.36618082	     -0.21081293	    -40.16894198	      0.53734193	      0.87520305	      0.69707135	      0.38799302	      7.87388287	      5.39459870	     -8.00377671	     16.83823159	     -6.72228265	     27.69448200	    -11.37109482	     -2.12480385	    -33.13712040	     12.80925365	      0.63633497	     -1.55154038	      5.97482502	     14.03887013
      4.98000000	     -5.30756921	     -0.19106094	    -40.39233204	      0.54094494	      0.87468821	      0.69970029	      0.08505409	      7.79172422	      5.58164272	     -8.14165175	     17.20743019	     -6.85016382	     28.04476687	    -11.24271274	     -1.52384016	    -31.05795036	     12.31666974	      0.88911764	     -1.59704217	      5.88821684	     14.18390968
      4.99000000	     -5.28179733	     -0.16866735	    -40.60256340	      0.54456484	      0.87410014	      0.70231791	     -0.19195282	      7.72721831	      5.79765356	     -8.27279432	     17.56430186	     -6.94090712	     28.43669310	    -11.15032821	     -0.93374834	    -29.04879449	     11.79795986	      1.06965819	     -1.61229282	      5.81851199	     14.28908823
      5.00000000	     -5.19661342	     -0.16490851	    -40.82414812	      0.54826898	      0.87356430	      0.70497198	     -0.51427551	      7.63233004	      5.97844073	     -8.44907197	     17.96662826	     -7.10519090	     28.74271156	    -11.06139946	     -0.41428132	    -27.09043250	     11.39578657	      1.38092830	     -1.69071804	      5.71553368	     14.44186651
